<svg version="1.1" xmlns="http://www.w3.org/2000/svg" xmlns:xlink="http://www.w3.org/1999/xlink" x="0px" y="0px"
          width="239.59px" height="38.4px" viewBox="0 0 239.59 38.4" style="enable-background:new 0 0 239.59 38.4;"
          xml:space="preserve">
          <defs>
          </defs>
          <g>
            <path class="st0" d="M27.96,0.64c-7.72,0-15.78,1.74-23.92,3.99C3,4.84,2,5.52,1.46,6.35C0.97,7.14,0.8,7.93,0.64,8.76
            c-0.79,4.43-0.69,8.78-0.53,13.59c0.04,1.1,0.2,2.41,0.71,3.2c0.54,0.8,1.46,1.31,2.56,1.48c1.41,0.21,2.82,0.38,4.23,0.52
            l-0.31,8.7c-0.05,0.69,0.29,1.27,0.71,1.6c0.38,0.29,0.8,0.41,1.23,0.44c0.86,0.06,1.87-0.3,2.37-1.26
            c2.19-4.22,3.57-6.09,6.32-8.9c7.16,0.18,13.41-0.22,20.48-0.75c2.5-0.07,4.22-2.11,4.67-3.74c1.36-4.23,1.57-9.46,1.71-14.74
            c0.06-2.09-0.67-4.15-1.95-5.23c-1.22-0.99-2.7-1.35-4.06-1.72C35.02,1.12,31.25,0.67,27.96,0.64z M38.25,3.95
            c1.36,0.37,2.56,0.72,3.31,1.34c1.26,1.34,1.22,2.23,1.2,3.67c-0.14,5.12-0.39,10.09-1.54,13.86c-0.5,1.41-1.37,2.41-3.01,2.56
            C31,25.91,24.75,26.32,17.5,26.12c-0.29-0.01-0.56,0.1-0.76,0.3c-3.04,3.07-4.6,5.21-6.92,9.68c-0.05,0.1-0.17,0.16-0.31,0.17
            c-0.1-0.01-0.14-0.08-0.14-0.15l0.31-9.43c0.02-0.51-0.4-1-0.91-1.05c-1.69-0.16-3.38-0.37-5.06-0.62
            c-0.73-0.11-0.99-0.31-1.19-0.61c-0.35-0.83-0.34-1.33-0.37-2.13c-0.16-4.77-0.24-8.95,0.49-13.1c0.07-0.61,0.3-1.24,0.54-1.77
            c0.4-0.63,1.02-0.72,1.64-0.9c7.96-2.2,15.74-3.84,23.07-3.85C31.49,2.81,35.26,3.17,38.25,3.95z M10.77,12.04
            c-1.1,1.31-0.99,3.1-0.14,4.29c0.44,0.63,1.13,1.13,1.97,1.24c1.09,0.09,1.78-0.35,2.53-0.86c1.35-1.18,1.49-3.23,0.46-4.71
            c-0.52-0.76-1.36-1.21-2.22-1.24C12.2,10.77,11.41,11.3,10.77,12.04L10.77,12.04z M22.62,10.97c-1.09,0.03-1.98,0.79-2.51,1.61
            c-0.62,0.93-0.98,2.1-0.48,3.25c0.96,2.2,4.28,2.18,5.6-0.06c0.61-1.03,0.45-2.2,0-3.06c-0.45-0.85-1.14-1.54-2.13-1.7
            C22.94,10.97,22.78,10.96,22.62,10.97z M32.25,11.18c-0.34-0.01-0.69,0.02-1.02,0.11c-1.31,0.35-2.43,1.7-2.26,3.44
            c0.09,0.87,0.49,1.72,1.21,2.31c0.72,0.58,1.77,0.85,2.88,0.62c1.27-0.26,2.06-1.28,2.32-2.27c0.26-0.99,0.2-2-0.41-2.82
            C34.33,11.7,33.32,11.19,32.25,11.18L32.25,11.18z M13.28,12.8c0.24,0,0.44,0.08,0.64,0.37c0.44,0.64,0.32,1.61-0.13,2.01
            c-0.45,0.39-0.73,0.42-0.92,0.4c-0.2-0.03-0.4-0.16-0.57-0.41c-0.34-0.48-0.44-1.26,0.01-1.81C12.54,13.03,12.98,12.83,13.28,12.8
            L13.28,12.8z M22.77,13.02c0.04,0.01,0.46,0.25,0.67,0.64c0.2,0.38,0.24,0.74,0.05,1.07c-0.58,0.98-1.8,0.71-1.99,0.29
            c-0.07-0.16-0.02-0.81,0.32-1.32C22.15,13.18,22.57,12.99,22.77,13.02L22.77,13.02z M33.33,13.77c0.06,0.08,0.21,0.64,0.1,1.08
            c-0.12,0.44-0.31,0.72-0.78,0.81c-0.6,0.12-0.94,0-1.19-0.21c-0.25-0.2-0.42-0.55-0.46-0.92c-0.09-0.92,0.24-1.13,0.76-1.27
            C32.37,13.11,33.06,13.37,33.33,13.77z" />
            <path class="st1" d="M57.6,4.76c0.02-0.26,0.11-0.49,0.29-0.7c0.17-0.21,0.43-0.32,0.7-0.31h6.83c0.23,0,0.47,0.1,0.71,0.29
            c0.23,0.17,0.37,0.44,0.37,0.72v10.89h11.42V4.76c0-0.28,0.1-0.51,0.29-0.71c0.19-0.2,0.44-0.3,0.75-0.3h6.73
            c0.31,0,0.57,0.08,0.8,0.23c0.23,0.15,0.35,0.4,0.35,0.74v32.15c0,0.34-0.1,0.59-0.3,0.76c-0.2,0.17-0.46,0.25-0.78,0.25h-6.8
            c-0.31,0-0.56-0.08-0.75-0.25c-0.19-0.17-0.29-0.42-0.29-0.76V23.81H66.49v13.05c0,0.32-0.1,0.57-0.31,0.75
            c-0.21,0.18-0.49,0.26-0.84,0.26h-6.76c-0.64,0-0.97-0.3-0.99-0.9C57.6,36.98,57.6,4.76,57.6,4.76z M120.48,37.48
            c-0.2,0.17-0.41,0.28-0.63,0.32c-0.21,0.04-0.42,0.07-0.63,0.07h-3.47c-0.28,0-0.51-0.05-0.71-0.15c-0.2-0.1-0.37-0.23-0.51-0.4
            c-0.14-0.17-0.26-0.37-0.34-0.58c-0.09-0.22-0.17-0.44-0.23-0.67l-0.71-2.94c-0.23,0.47-0.56,1.01-1,1.62
            c-0.47,0.64-1.03,1.21-1.67,1.7c-0.67,0.53-1.48,0.97-2.41,1.33c-0.93,0.36-2.01,0.54-3.22,0.54c-1.75,0-3.33-0.34-4.76-1.01
            c-1.4-0.65-2.64-1.59-3.64-2.76c-1-1.16-1.78-2.52-2.33-4.08c-0.55-1.55-0.83-3.21-0.83-4.97V10.46c0-0.58,0.13-1.02,0.38-1.32
            c0.25-0.3,0.65-0.45,1.21-0.45h5.31c0.66,0,1.11,0.11,1.36,0.33c0.25,0.22,0.37,0.65,0.37,1.3v14.96c0,0.66,0.15,1.28,0.45,1.87
            c0.3,0.59,0.69,1.11,1.18,1.56c0.49,0.45,1.04,0.81,1.67,1.07c0.62,0.26,1.25,0.39,1.9,0.39c0.55,0,1.12-0.13,1.71-0.39
            c0.59-0.26,1.14-0.62,1.63-1.05c0.5-0.44,0.91-0.95,1.23-1.54c0.32-0.59,0.48-1.21,0.48-1.87V10.39c0-0.26,0.05-0.52,0.15-0.78
            c0.1-0.26,0.25-0.46,0.45-0.6c0.2-0.12,0.39-0.21,0.56-0.25s0.38-0.07,0.61-0.07h5.19c0.66,0,1.13,0.16,1.42,0.48
            c0.29,0.32,0.44,0.75,0.44,1.29v25.72c0,0.29-0.07,0.56-0.19,0.8s-0.31,0.44-0.54,0.57C120.34,37.55,120.48,37.48,120.48,37.48z
             M147.16,34.31c-0.41,0.41-0.87,0.86-1.37,1.33c-0.5,0.47-1.05,0.92-1.64,1.33c-0.6,0.42-1.25,0.76-1.93,1.02
            c-0.71,0.27-1.47,0.41-2.23,0.4c-2.08,0-4-0.39-5.76-1.17c-1.71-0.75-3.25-1.84-4.53-3.21c-1.26-1.36-2.25-2.95-2.96-4.79
            c-0.71-1.84-1.07-3.81-1.07-5.93c0-2.13,0.36-4.11,1.07-5.94c0.71-1.83,1.7-3.42,2.96-4.78c1.27-1.36,2.82-2.45,4.53-3.19
            c1.76-0.77,3.67-1.16,5.76-1.16c0.84,0,1.61,0.12,2.31,0.37c0.67,0.23,1.31,0.55,1.91,0.94c0.57,0.38,1.1,0.82,1.59,1.3
            c0.48,0.48,0.94,0.95,1.37,1.41V1.75c0-0.49,0.15-0.9,0.45-1.24c0.3-0.34,0.75-0.51,1.35-0.51h5.17c0.2,0,0.41,0.04,0.63,0.13
            c0.22,0.09,0.43,0.2,0.61,0.36c0.18,0.15,0.33,0.34,0.45,0.55c0.12,0.22,0.17,0.45,0.17,0.71V36.1c0,1.18-0.62,1.77-1.86,1.77h-4.5
            c-0.31,0-0.54-0.04-0.71-0.12c-0.17-0.07-0.31-0.19-0.43-0.33c-0.13-0.17-0.23-0.35-0.31-0.55c-0.11-0.26-0.22-0.52-0.34-0.77
            L147.16,34.31L147.16,34.31z M133.94,23.3c-0.01,0.97,0.15,1.93,0.47,2.84c0.31,0.88,0.76,1.64,1.35,2.29
            c0.59,0.65,1.3,1.17,2.1,1.53c0.82,0.38,1.73,0.56,2.72,0.56c0.98,0,1.9-0.18,2.77-0.53c0.84-0.34,1.61-0.83,2.26-1.46
            c0.65-0.63,1.18-1.37,1.55-2.19c0.39-0.84,0.61-1.75,0.65-2.71V23.3c0-0.96-0.18-1.91-0.55-2.8c-0.36-0.87-0.87-1.67-1.53-2.34
            c-0.65-0.68-1.44-1.22-2.3-1.6c-0.9-0.39-1.88-0.59-2.86-0.59c-1,0-1.9,0.19-2.72,0.59c-0.82,0.39-1.52,0.92-2.1,1.6
            c-0.59,0.69-1.05,1.49-1.35,2.34C134.1,21.4,133.94,22.35,133.94,23.3L133.94,23.3z M182.66,34.31c-0.41,0.41-0.87,0.86-1.37,1.33
            s-1.05,0.92-1.64,1.33c-0.6,0.42-1.25,0.76-1.93,1.02c-0.71,0.27-1.47,0.41-2.23,0.4c-2.08,0-4-0.39-5.76-1.17
            c-1.71-0.75-3.25-1.84-4.53-3.21c-1.26-1.36-2.25-2.95-2.96-4.79c-0.71-1.84-1.07-3.81-1.07-5.93c0-2.13,0.36-4.11,1.07-5.94
            s1.7-3.42,2.96-4.78c1.27-1.36,2.82-2.45,4.53-3.19c1.75-0.77,3.67-1.16,5.76-1.16c0.84,0,1.61,0.12,2.31,0.37
            c0.67,0.23,1.31,0.55,1.91,0.94c0.57,0.38,1.1,0.82,1.59,1.3c0.48,0.48,0.94,0.95,1.37,1.41V1.75c0-0.49,0.15-0.9,0.45-1.24
            c0.3-0.34,0.75-0.51,1.35-0.51h5.17c0.2,0,0.41,0.04,0.63,0.13c0.22,0.09,0.43,0.2,0.61,0.36c0.18,0.15,0.33,0.34,0.45,0.55
            c0.11,0.22,0.17,0.45,0.17,0.71V36.1c0,1.18-0.62,1.77-1.86,1.77h-4.5c-0.31,0-0.54-0.04-0.71-0.12c-0.17-0.08-0.31-0.19-0.43-0.33
            c-0.13-0.17-0.23-0.35-0.31-0.55c-0.11-0.26-0.22-0.52-0.35-0.77L182.66,34.31L182.66,34.31z M169.45,23.3
            c-0.01,0.97,0.15,1.93,0.47,2.84c0.32,0.88,0.76,1.64,1.35,2.29c0.59,0.65,1.3,1.17,2.1,1.53c0.82,0.38,1.73,0.56,2.72,0.56
            c0.98,0,1.9-0.18,2.77-0.53c0.84-0.34,1.61-0.83,2.26-1.46c0.65-0.63,1.17-1.37,1.55-2.19c0.39-0.84,0.61-1.75,0.66-2.71V23.3
            c0-0.96-0.18-1.91-0.55-2.8c-0.36-0.87-0.87-1.67-1.53-2.34c-0.65-0.68-1.44-1.22-2.3-1.6c-0.9-0.39-1.88-0.59-2.86-0.59
            c-1,0-1.9,0.19-2.72,0.59c-0.82,0.39-1.52,0.92-2.1,1.6c-0.59,0.69-1.05,1.49-1.35,2.34C169.6,21.4,169.44,22.35,169.45,23.3
            L169.45,23.3z M197.6,1.77c0-0.49,0.12-0.9,0.37-1.24c0.25-0.34,0.67-0.51,1.26-0.51h5.63c0.15,0,0.32,0.04,0.48,0.13
            c0.18,0.09,0.34,0.21,0.47,0.36c0.15,0.15,0.27,0.34,0.37,0.55c0.1,0.21,0.15,0.45,0.15,0.71V36.1c0,0.58-0.16,1.02-0.49,1.32
            c-0.33,0.3-0.75,0.45-1.27,0.45h-5.33c-0.6,0-1.02-0.15-1.26-0.45c-0.24-0.3-0.37-0.74-0.37-1.32V1.77z M236.3,34.38
            c-1.33,1.23-2.87,2.22-4.55,2.91c-1.7,0.7-3.52,1.06-5.35,1.05c-2.1,0-4.08-0.38-5.95-1.15c-1.83-0.74-3.5-1.82-4.92-3.18
            c-1.42-1.37-2.56-2.99-3.35-4.79c-0.83-1.84-1.24-3.84-1.24-6c0-1.35,0.16-2.65,0.49-3.92c0.32-1.24,0.79-2.43,1.4-3.55
            c0.61-1.1,1.35-2.13,2.21-3.05c0.86-0.92,1.84-1.72,2.91-2.38c1.09-0.67,2.27-1.18,3.49-1.54c1.29-0.37,2.63-0.56,3.98-0.55
            c1.27,0,2.51,0.17,3.7,0.51c1.2,0.34,2.32,0.81,3.37,1.42c1.05,0.61,2.01,1.35,2.88,2.21c0.86,0.84,1.62,1.79,2.25,2.81
            c0.63,1.02,1.12,2.12,1.46,3.26c0.34,1.16,0.52,2.35,0.52,3.57c0,0.8-0.01,1.45-0.04,1.95c-0.02,0.5-0.14,0.91-0.36,1.21
            c-0.21,0.3-0.57,0.51-1.07,0.62c-0.5,0.12-1.23,0.17-2.19,0.17h-16.55c0.15,0.98,0.46,1.8,0.93,2.46c0.43,0.62,0.98,1.16,1.62,1.57
            c0.61,0.39,1.26,0.67,1.95,0.84c0.64,0.16,1.29,0.25,1.95,0.25c0.55,0,1.12-0.06,1.7-0.17c0.57-0.11,1.14-0.27,1.69-0.46
            c0.52-0.18,1.02-0.4,1.49-0.67c0.45-0.25,0.82-0.52,1.09-0.79c0.24-0.2,0.46-0.35,0.63-0.45c0.18-0.1,0.36-0.15,0.56-0.15
            c0.2,0,0.4,0.07,0.61,0.21c0.25,0.18,0.49,0.38,0.7,0.6l2.44,2.76c0.17,0.2,0.28,0.38,0.32,0.54c0.05,0.16,0.07,0.33,0.07,0.49
            c0,0.31-0.09,0.57-0.25,0.79C236.73,34.02,236.53,34.21,236.3,34.38L236.3,34.38z M225.25,15.24c-0.6,0-1.18,0.12-1.74,0.36
            c-0.57,0.24-1.1,0.56-1.57,0.95c-0.49,0.4-0.93,0.85-1.32,1.36c-0.37,0.48-0.69,0.99-0.95,1.54h11.74
            c-0.31-0.58-0.66-1.13-1.04-1.66c-0.37-0.5-0.8-0.95-1.29-1.33c-0.5-0.39-1.06-0.69-1.65-0.9
            C226.8,15.34,226.07,15.24,225.25,15.24z" />
          </g>
        </svg>
